<?xml version="1.0" standalone="no"?><!DOCTYPE svg PUBLIC "-//W3C//DTD SVG 1.1//EN" "http://www.w3.org/Graphics/SVG/1.1/DTD/svg11.dtd"><svg t="1624251454575" class="icon" viewBox="0 0 1423 1024" version="1.1" xmlns="http://www.w3.org/2000/svg" p-id="2398" xmlns:xlink="http://www.w3.org/1999/xlink" width="88.9375" height="64"><defs><style type="text/css"></style></defs><path d="M1026.131879 1012.433282 1026.131879 295.125899C1026.131879 132.144368 906.824059 0 759.623575 0L10.456623 0C4.679228 0 0 5.152657 0 11.482761L0 1012.426894C0 1018.756997 4.679228 1023.886235 10.456623 1023.886235L210.567197 1023.886235C216.344591 1023.886235 221.01805 1018.729318 221.01805 1012.363021L221.01805 226.740342C221.01805 220.361268 225.697279 215.187318 231.474673 215.187318L661.794431 215.187318C742.602957 215.187318 808.133309 287.701388 808.133309 377.174514L808.133309 1012.339597C808.133309 1018.712287 812.806763 1023.856428 818.553387 1023.856428L1015.717568 1023.856428C1021.452651 1023.856428 1026.137647 1018.716542 1026.137647 1012.397088L1026.131879 1012.433282ZM622.027725 1012.356633C622.027725 1018.735706 617.396574 1023.886235 611.613414 1023.886235L411.550919 1023.886235C405.773524 1023.886235 401.094295 1018.729318 401.094295 1012.356633L401.094295 410.33889C401.094295 403.966203 405.773524 398.792253 411.550919 398.792253L611.613414 398.792253C617.396574 398.792253 622.027725 403.966203 622.027725 410.33889L622.027725 1012.38644 622.027725 1012.356633 622.027725 1012.356633ZM1422.064215 1012.356633C1422.064215 1018.735706 1417.379219 1023.886235 1411.601821 1023.886235L1211.585486 1023.886235C1205.792707 1023.886235 1201.082706 1018.729318 1201.082706 1012.356633L1201.082706 11.589221C1201.082706 5.186724 1205.792707 0.019163 1211.585486 0.019163L1411.601821 0.019163C1417.384987 0.019163 1422.064215 5.186724 1422.064215 11.589221L1422.064215 1012.356633 1422.064215 1012.356633Z" p-id="2399" fill="#707070"></path></svg>