<?xml version="1.0" standalone="no"?><!DOCTYPE svg PUBLIC "-//W3C//DTD SVG 1.1//EN" "http://www.w3.org/Graphics/SVG/1.1/DTD/svg11.dtd"><svg t="1624245883893" class="icon" viewBox="0 0 1024 1024" version="1.1" xmlns="http://www.w3.org/2000/svg" p-id="2784" xmlns:xlink="http://www.w3.org/1999/xlink" width="64" height="64"><defs><style type="text/css"></style></defs><path d="M971.99 972.39h-76v-24h52v-52h24zM836.93 972.39H718.81v-24h118.12v24z m-177.18 0H541.63v-24h118.12v24z m-177.18 0H364.45v-24h118.12v24z m-177.18 0H187.27v-24h118.12v24zM128.21 972.39h-76v-76h24v52h52zM76.21 837.33h-24V719.21h24v118.12z m0-177.18h-24V542.03h24v118.12z m0-177.18h-24V364.85h24v118.12z m0-177.18h-24V187.67h24v118.12zM76.21 128.61h-24v-76h76v24h-52zM836.93 76.61H718.81v-24h118.12v24z m-177.18 0H541.63v-24h118.12v24z m-177.18 0H364.45v-24h118.12v24z m-177.18 0H187.27v-24h118.12v24zM971.99 128.61h-24v-52h-52v-24h76zM971.99 837.33h-24V719.21h24v118.12z m0-177.18h-24V542.03h24v118.12z m0-177.18h-24V364.85h24v118.12z m0-177.18h-24V187.67h24v118.12z" fill="#8a8a8a" p-id="2785"></path><path d="M702.36 536.22H321.84c-13.25 0-24-10.74-24-24 0-13.25 10.75-24 24-24h380.52c13.25 0 24 10.75 24 24 0 13.26-10.74 24-24 24z" fill="#8a8a8a" p-id="2786"></path><path d="M512.1 726.48c-13.25 0-24-10.75-24-24V321.96c0-13.25 10.75-24 24-24s24 10.75 24 24v380.52c0 13.26-10.75 24-24 24z" fill="#8a8a8a" p-id="2787"></path></svg>